<?xml version="1.0" encoding="utf-8"?>
<!-- Generator: Adobe Illustrator 25.4.1, SVG Export Plug-In . SVG Version: 6.00 Build 0)  -->
<svg version="1.1" id="Layer_1" xmlns="http://www.w3.org/2000/svg" xmlns:xlink="http://www.w3.org/1999/xlink" x="0px" y="0px"
	 viewBox="0 0 700 292.26" style="enable-background:new 0 0 700 292.26;" xml:space="preserve">
<g>
	<polygon points="111.47,0.35 79.34,184.72 47.21,0.35 0,0.35 52.44,292.6 79.34,292.6 106.24,292.6 158.68,0.35 	"/>
	<path d="M525.6,57.85c-13.36,0-24.19,0-28.4,0h-1.91h-3.43h-2.51c-4.58,0-15.05,0-27.8,0c-17.23,0-31.18,21.8-31.18,38.16v49.59
		l46.88-23.97v-19.79h33.77v2.52v31.54v1.37l-80.65,41.24v2.97v72.96c0,16.35,13.95,38.16,31.18,38.16c12.75,0,23.22,0,27.8,0h2.51
		h3.43h1.91c2.52,0,7.43,0,13.82,0c4.28,0,9.22,0,14.58,0h31.18v-38.16V191.5v-24.07v-2.06V96.01
		C556.78,79.66,542.83,57.85,525.6,57.85z M511.02,248.78h-33.77V208.1l33.77-17.27V248.78z"/>
	<path d="M668.82,57.85c-13.36,0-24.19,0-28.4,0h-1.91h-3.43h-2.51c-2.49,0-6.72,0-12.1,0c-4.53,0-9.87,0-15.7,0h-31.18v38.16v49.59
		v32.91v2.97v72.96v38.16h31.18c5.83,0,11.17,0,15.7,0v-43.83V208.1v-53.56v-32.91v-19.79h33.77v2.52v31.54v1.37v53.56v57.94v43.83
		c4.28,0,9.22,0,14.58,0H700v-38.16V191.5v-24.07v-2.06V96.01C700,79.66,686.05,57.85,668.82,57.85z"/>
	<path d="M413.57,249.1h-38.76V121.48l38.76-19.82V55.65v-1.3l-38.76,19.82V15.74l-45.62,22.78c0,0,0,25.49,0,58.97l-44.1,22.55
		V96.01c0-16.35-13.95-38.16-31.18-38.16c-13.36,0-24.19,0-28.4,0h-1.91h-3.43h-2.51c-4.58,0-15.05,0-27.8,0
		c-17.23,0-31.18,21.8-31.18,38.16v72.96v12.51v72.96c0,16.35,13.95,38.16,31.18,38.16c12.75,0,23.22,0,27.8,0h2.51h3.43h1.91
		c4.21,0,15.04,0,28.4,0c17.23,0,31.18-21.8,31.18-38.16V191.5l-45.73,23.39v33.89h-35.2v-39.96l80.93-41.38v-0.07l44.1-22.55
		c0,50.34,0,101.27,0,109.36c0,16.68,9.98,38.43,32.22,38.43c17.16,0,41.79,0,52.17,0V249.1z M239.33,143.36l-33.77,17.27v-58.79
		h33.77V143.36z"/>
</g>
</svg>
